<svg xmlns="http://www.w3.org/2000/svg" viewBox="0 0 512 512"><rect width="512" height="512" fill="#0A0A0A"></rect><g transform="translate(92.2 156.9) scale(0.7397) translate(-151 -238)"><path fill-rule="evenodd" clip-rule="evenodd" d="M153.178 246.962C153.745 244.591 155.511 243.418 161.008 241.759C162.214 241.395 163.42 241.031 164.626 240.667C173.068 240.634 181.512 240.6 189.954 240.567C214.1 240.472 225.468 240.685 232.586 241.365C234.214 241.521 237.173 241.774 239.163 241.929C248.699 242.67 250.578 242.836 254.216 243.258C263.377 244.323 275.313 247.259 280.656 249.762C281.972 250.38 285.193 251.611 287.81 252.498C291.031 253.589 293.786 254.765 296.333 256.137C298.403 257.251 301.944 259.074 304.202 260.188C307.067 261.6 310.866 263.927 316.778 267.887C326.283 274.257 326.849 274.679 331.503 278.859C334.49 281.542 336.562 283.713 344.035 291.988C346.628 294.859 356.127 307.815 358.379 311.552C359.243 312.985 360.7 315.655 361.618 317.486C362.535 319.317 363.877 321.773 364.599 322.943C366.062 325.314 368.019 330.389 369.417 335.433C370.778 340.346 371.412 342.281 372.46 344.696C373.499 347.095 375.134 352.189 376.084 355.985C376.422 357.338 377.21 360.269 377.835 362.498C378.457 364.727 379.161 367.659 379.398 369.011C379.635 370.363 380.347 373.017 380.987 374.908C381.624 376.798 382.42 379.661 382.759 381.27C383.097 382.879 383.737 385.111 384.18 386.229C384.62 387.346 385.268 389.563 385.622 391.155C386.701 396.047 388.502 401.975 389.524 404.005C390.059 405.067 390.647 406.517 390.829 407.229C391.008 407.941 391.79 409.826 392.566 411.418C398.155 422.924 398.485 423.526 401.884 428.398C406.677 435.273 408.402 437.519 412.368 442.069C419.477 450.221 427.713 457.017 437.751 463.024C440.409 464.613 446.76 467.707 450.763 469.366C452.118 469.925 453.626 470.628 454.121 470.929C455.374 471.69 464.31 473.997 468.684 474.686C472.018 475.21 474.954 475.566 483.038 476.42C487.244 476.866 496.354 476.788 499.506 476.281C500.956 476.047 503.185 475.775 504.459 475.676C509.391 475.294 513.84 474.608 516.616 473.809C518.208 473.349 520.617 472.756 521.972 472.489C526.091 471.673 543.053 464.462 545.708 462.396C546.585 461.715 548.406 460.459 549.76 459.605C552.073 458.146 556.982 454.392 560.905 451.078C561.86 450.273 563.631 448.88 564.839 447.986C566.048 447.092 568.002 445.52 569.181 444.492C571.716 442.281 572.677 441.748 575.366 441.056C577.314 440.553 577.471 440.553 580.203 441.085C581.758 441.386 583.607 441.887 584.317 442.2C586.094 442.987 589.281 446.267 591.047 449.124C591.539 449.923 592.031 450.719 592.523 451.518C592.587 452.6 592.65 453.686 592.714 454.768C592.911 458.158 592.636 460.766 591.938 462.098C590.618 464.616 585.428 469.514 576.391 476.762C574.88 477.975 572.663 479.764 571.47 480.736C570.278 481.709 567.785 483.278 565.933 484.221C564.083 485.168 562.005 486.413 561.316 486.989C559.86 488.204 555.668 490.375 553.81 490.876C553.106 491.067 551.613 491.684 550.493 492.248C549.372 492.81 547.638 493.58 546.634 493.959C545.632 494.335 544.069 495.016 543.16 495.47C542.254 495.925 540.795 496.527 539.918 496.807C539.041 497.091 537.131 497.815 535.669 498.42C534.207 499.022 531.408 499.855 529.446 500.272C527.483 500.689 524.695 501.28 523.248 501.586C521.801 501.89 518.087 502.478 514.998 502.889C511.907 503.303 508.665 503.821 507.788 504.044C504.957 504.762 496.102 505.144 485.962 504.985C476.934 504.843 476.106 504.785 471.604 503.966C468.979 503.491 465.329 502.889 463.499 502.631C455.371 501.485 446.713 498.874 438.461 495.079C437.187 494.492 434.518 493.369 432.527 492.578C428.709 491.067 425.319 489.209 417.44 484.323C407.792 478.339 400.315 472.33 392.939 464.633C385.983 457.376 381.473 451.546 376.888 443.879C375.568 441.673 374.083 439.392 373.588 438.813C373.091 438.234 372.147 436.717 371.49 435.444C370.83 434.17 369.704 432.086 368.989 430.812C368.274 429.538 367.281 427.454 366.786 426.181C366.291 424.907 365.196 422.499 364.352 420.825C363.509 419.152 362.599 417.265 362.329 416.628C359.728 410.474 358.374 406.795 357.83 404.41C357.476 402.853 356.891 400.794 356.534 399.839C356.175 398.884 355.533 396.505 355.107 394.551C354.681 392.597 354.013 390.061 353.624 388.918C353.235 387.771 352.659 385.331 352.346 383.496C352.031 381.658 351.459 379.05 351.073 377.695C350.688 376.34 350.021 373.671 349.591 371.761C348.242 365.757 346.448 359.552 345.406 357.288C345.04 356.492 344.308 354.472 343.779 352.801C340.156 341.356 338.748 337.562 337.276 335.294C336.551 334.177 334.617 330.722 332.979 327.617C330.925 323.725 329.245 320.985 327.565 318.789C321.614 311.012 320.326 309.381 318.31 307.065C312.269 300.129 300.059 290.177 293.672 286.985C292.209 286.255 289.408 284.695 287.449 283.521C283.737 281.298 280.639 279.817 278.161 279.082C277.36 278.844 275.242 278.012 273.453 277.233C266.963 274.407 263.41 273.253 257.913 272.185C255.004 271.62 252.363 271.085 252.045 270.996C251.147 270.745 235.329 270.388 207.667 269.996C182.604 269.641 182.386 269.643 181.621 270.214C181.197 270.53 180.762 271.103 180.654 271.487C180.411 272.358 180.336 471.948 180.578 473.164C180.676 473.65 180.992 474.301 181.282 474.611C181.778 475.144 182.397 475.187 192.032 475.364C203.355 475.569 241.752 475.097 246.979 474.689C248.81 474.545 252.522 474.035 255.229 473.555C257.935 473.074 261.192 472.533 262.465 472.35C264.87 472.006 271.932 469.754 277.621 467.519C287.502 463.637 297.737 457.651 305.451 451.243C313.875 444.246 319.901 437.846 325.698 429.744C330.076 423.625 331.97 420.484 334.557 415.051C335.273 413.548 336.043 412.113 336.268 411.864C337.161 410.877 339.066 406.558 340.486 402.3C341.309 399.831 342.104 397.584 342.253 397.306C342.874 396.143 345.378 397.127 346.025 398.791C346.353 399.634 347.966 405.131 349.022 409.007C349.398 410.387 350.083 412.405 350.544 413.493C351.005 414.582 351.675 416.44 352.032 417.621C352.39 418.805 353.566 421.671 354.645 423.989C356.921 428.884 357.17 429.588 357.509 432.089C357.945 435.299 356.625 439.655 354.285 442.744C346.135 453.489 339.714 460.595 331.634 467.812C323.78 474.822 318.188 478.8 307.477 484.994C300.944 488.772 298.62 489.907 292.57 492.269C278.336 497.829 274.438 499.016 265.794 500.431C254.804 502.232 253.124 502.417 236.413 503.679C228.169 504.305 226.183 504.336 197.191 504.336C169.226 504.336 166.396 504.293 163.613 503.821C158.67 502.982 157.087 502.342 155.299 500.466C154.455 499.58 153.603 498.397 153.406 497.835C153.125 497.027 153.039 470.292 153.004 372.34C152.98 303.881 153.058 247.461 153.178 246.962Z" fill="#F7F6F2"></path><path fill-rule="evenodd" clip-rule="evenodd" d="M369.301 304.881C369.709 304.109 370.329 303.127 370.676 302.698C371.021 302.269 372.019 300.906 372.896 299.67C379.922 289.755 392.016 277.37 401.522 270.36C402.735 269.466 404.411 268.179 405.247 267.5C407.424 265.733 410.799 263.494 414.145 261.596C415.737 260.693 419.842 258.341 423.263 256.369C428.077 253.595 430.24 252.529 432.816 251.656C434.645 251.037 436.75 250.229 437.488 249.861C438.229 249.494 440.834 248.394 443.277 247.418C447.969 245.543 457.105 243.208 462.512 242.501C463.93 242.315 466.915 241.784 469.144 241.32C472.452 240.631 474.444 240.419 479.999 240.166C490.495 239.688 503.272 240.275 509.304 241.511C511.174 241.895 514.17 242.354 515.962 242.531C523.607 243.286 537.759 247.221 543.956 250.315C545.157 250.915 547.054 251.696 548.168 252.05C550.701 252.857 557.193 255.848 559.312 257.184C560.189 257.736 563.249 259.579 566.115 261.28C571.95 264.743 576.683 268.231 581.564 272.668C586.14 276.83 589.278 280.824 591.759 285.645C592.694 287.465 592.725 287.639 592.734 291C592.746 294.294 592.702 294.545 591.932 295.856C590.754 297.861 587.949 300.742 585.839 302.118C583.555 303.606 579.115 304.847 576.68 304.678C574.57 304.533 573.372 303.915 570.836 301.669C569.672 300.639 567.808 299.191 566.694 298.451C564.694 297.125 561.246 294.412 557.576 291.276C556.542 290.392 555.043 289.235 554.247 288.704C551.72 287.02 544.104 282.251 542.451 281.319C540.514 280.226 533.781 277.277 530.209 275.957C528.774 275.425 526.328 274.449 524.779 273.787C520.012 271.749 516.668 271.064 504.024 269.529C495.445 268.487 487.51 268.427 479.854 269.346C476.988 269.69 473.283 270.053 471.616 270.154C465.763 270.509 456.758 272.606 452.141 274.69C450.43 275.461 448.968 276.093 448.89 276.093C448.624 276.093 440.484 279.872 438.171 281.069C436.897 281.729 434.943 282.899 433.829 283.67C432.714 284.441 429.982 286.26 427.759 287.713C423.365 290.581 419.668 293.459 416.403 296.553C412.487 300.263 407.294 306.049 404.37 309.96C402.763 312.109 400.885 314.501 400.196 315.276C398.905 316.73 394.635 323.409 393.929 325.079C393.712 325.6 392.927 326.907 392.186 327.983C391.448 329.06 389.416 332.787 387.677 336.267C384.979 341.657 384.157 342.959 383.453 342.959C383.395 342.959 382.764 342.145 382.055 341.15C381.259 340.034 380.59 338.675 380.312 337.604C379.415 334.151 375.997 324.816 374.804 322.552C374.132 321.278 372.659 318.543 371.533 316.473C368.36 310.648 367.796 307.711 369.301 304.881Z" fill="#F7F6F2"></path></g></svg>