<svg width="408" height="63" viewBox="0 0 408 63" fill="none" xmlns="http://www.w3.org/2000/svg">
<path d="M347.5 1V14C347.5 14.55 347.95 15 348.5 15H370.016V62C370.016 62.55 370.466 63 371.016 63H383.984C384.534 63 384.984 62.55 384.984 62V15H406.5C407.05 15 407.5 14.55 407.5 14V1C407.5 0.45 407.05 0 406.5 0H348.51C347.96 0 347.51 0.45 347.51 1H347.5Z" fill="#0A0A0A"/>
<path d="M268.59 36.2C266.64 33.59 263.89 31.6 260.32 30.22C260.17 30.16 260.01 30.11 259.86 30.06C262.41 28.72 264.43 27.02 265.89 24.96C267.66 22.47 268.54 19.64 268.54 16.46C268.54 11.66 266.47 7.72 262.34 4.63C258.21 1.54 251.8 0 243.11 0H210.5C209.95 0 209.5 0.45 209.5 1V62C209.5 62.55 209.95 63 210.5 63H244.9C254.07 63 260.92 61.3 265.45 57.89C270.15 54.35 272.48 46.55 270.87 40.89C270.39 39.19 269.62 37.63 268.58 36.23L268.59 36.2ZM224.48 14.98H246.91C249.22 14.98 250.9 15.36 251.97 16.11C253.04 16.86 253.57 17.99 253.57 19.49C253.57 20.99 253.04 22.05 251.97 22.83C250.9 23.61 249.21 24 246.91 24H224.48V14.98ZM254.95 46.83C253.89 47.6 252.29 47.98 250.16 47.98H224.48V38.96H250.16C252.29 38.96 253.88 39.34 254.95 40.11C256.01 40.88 256.55 42 256.55 43.47C256.55 44.94 256.02 46.07 254.95 46.83Z" fill="#0A0A0A"/>
<path d="M296.97 38.99H331C331.55 38.99 332 38.54 332 37.99V25.02C332 24.47 331.55 24.02 331 24.02H296.97V15H335C335.55 15 336 14.55 336 14V1C336 0.450002 335.55 0 335 0H283C282.45 0 282 0.450002 282 1V62C282 62.55 282.45 63 283 63H335C335.55 63 336 62.55 336 62V49C336 48.45 335.55 48 335 48H296.97V38.98V38.99Z" fill="#0A0A0A"/>
<path d="M195.99 0H138C137.45 0 137 0.45 137 1V14C137 14.55 137.45 15 138 15H159.516V62C159.516 62.55 159.966 63 160.516 63H173.484C174.034 63 174.484 62.55 174.484 62V15H196C196.55 15 197 14.55 197 14V1C197 0.45 196.55 0 196 0H195.99Z" fill="#3DD07B"/>
<path d="M102.5 15C111.6 15 119 22.4 119 31.5C119 40.6 111.6 48 102.5 48C93.4 48 86 40.6 86 31.5C86 22.4 93.4 15 102.5 15ZM102.5 0C85.1 0 71 14.1 71 31.5C71 48.9 85.1 63 102.5 63C119.9 63 134 48.9 134 31.5C134 14.1 119.9 0 102.5 0Z" fill="#3DD07B"/>
<path d="M47.0276 36.65L11.6619 0.889999C11.1018 0.319999 10.3317 0 9.53154 0H1.00016C0.450071 0 0 0.45 0 1V62C0 62.55 0.450071 63 1.00016 63H13.9723C14.5223 63 14.9724 62.55 14.9724 62V26.35L50.3381 62.11C50.8982 62.68 51.6683 63 52.4685 63H60.9998C61.5499 63 62 62.55 62 62V1C62 0.45 61.5499 0 60.9998 0H48.0277C47.4777 0 47.0276 0.45 47.0276 1V36.65Z" fill="#3DD07B"/>
</svg>
