<svg xmlns="http://www.w3.org/2000/svg" width="144" height="32" fill="none" viewBox="0 0 144 32"><path fill="#f0512d" d="M15.575 17.214a39 39 0 0 0-4.096-1.241c-1.347-.378-2.479-.81-3.45-1.295-.915-.486-1.4-1.187-1.4-2.05 0-.918.377-1.566 1.078-2.051.7-.486 1.616-.702 2.694-.702q3.476 0 4.85 2.914l4.69-2.644c-.917-1.673-2.157-2.968-3.827-3.94-1.67-.917-3.557-1.402-5.659-1.402-2.695 0-4.904.701-6.683 2.158s-2.694 3.346-2.694 5.72c0 1.727.485 3.13 1.401 4.263s2.102 1.889 3.45 2.375 2.748.917 4.095 1.24c1.347.379 2.479.81 3.449 1.296.916.54 1.401 1.187 1.401 1.997 0 1.942-1.455 2.86-4.365 2.86s-4.796-1.241-5.713-3.724L0 25.74c.808 1.889 2.156 3.346 3.934 4.425 1.832 1.08 3.988 1.62 6.521 1.62 2.856 0 5.282-.702 7.168-2.105s2.856-3.346 2.856-5.828c0-1.781-.485-3.184-1.401-4.371-1.024-.972-2.156-1.781-3.503-2.267M32.282 0H26.73v5.558h-4.743v5.343h4.743v12.357c0 3.346.916 5.666 2.748 6.907s4.905 1.62 9.162 1.134v-5.02c-1.401.055-2.587.055-3.503 0-.916-.053-1.67-.323-2.156-.754-.485-.486-.7-1.242-.7-2.267V10.901h6.359V5.557h-6.36zm58.852 25.417a8.14 8.14 0 0 1-4.096 1.079c-2.263 0-4.15-.756-5.658-2.32-1.51-1.512-2.264-3.454-2.264-5.775 0-2.32.755-4.209 2.264-5.774s3.395-2.32 5.658-2.32c1.563 0 2.91.324 4.096 1.08 1.186.7 2.048 1.672 2.64 2.913l4.797-2.752c-1.024-1.997-2.586-3.615-4.634-4.857-2.048-1.187-4.312-1.78-6.845-1.78q-5.82 0-9.7 3.885c-2.587 2.59-3.88 5.828-3.88 9.66 0 3.777 1.293 7.014 3.88 9.605 2.587 2.59 5.82 3.939 9.7 3.939 2.48 0 4.797-.594 6.845-1.835 2.048-1.187 3.61-2.806 4.742-4.856l-4.796-2.699c-.593 1.08-1.51 2.051-2.749 2.806M125.03 5.504h-7.114l-9.377 10.253v-10.9h-5.82v26.388h5.82v-10.74l9.97 10.74h6.952l-12.287-13.113zM137.641 0h-5.551v5.558h-4.743v5.343h4.743v12.357c0 3.346.916 5.666 2.748 6.907s4.905 1.62 9.162 1.134v-5.02c-1.401.055-2.587.055-3.503 0-.916-.053-1.671-.323-2.156-.754-.485-.486-.7-1.242-.7-2.267V10.901H144V5.557h-6.359zM56.104 4.479c-7.49 0-13.58 6.098-13.58 13.599 0 7.5 6.09 13.598 13.58 13.598 3.072 0 5.928-1.025 8.192-2.806v2.59h5.335V18.078c0-7.501-6.036-13.6-13.527-13.6m0 21.8a8.25 8.25 0 0 1-8.245-8.255c0-4.533 3.664-8.203 8.245-8.203 4.527 0 8.192 3.67 8.192 8.203 0 4.586-3.665 8.256-8.192 8.256"/></svg>